<svg height="512pt" viewBox="-61 0 512 512" width="512pt" xmlns="http://www.w3.org/2000/svg"><path d="m240 181h-30v-30h-30v30h-30v-30h-30v120h150v-120h-30zm0 0"/><path d="m195 512 156.078125-199.089844c25.460937-33.925781 38.921875-74.355468 38.921875-116.910156 0-107.519531-87.480469-196-195-196s-195 88.480469-195 196c0 42.554688 13.460938 82.984375 38.890625 116.863281 2.246094 3.007813 153.738281 196.125 156.109375 199.136719zm-105-391h60v-15c0-24.8125 20.1875-45 45-45s45 20.1875 45 45v15h60v180h-210zm0 0"/><path d="m210 106c0-8.277344-6.722656-15-15-15s-15 6.722656-15 15v15h30zm0 0"/></svg>